<?xml version="1.0" encoding="utf-8"?>
<!-- Generator: Adobe Illustrator 23.0.1, SVG Export Plug-In . SVG Version: 6.00 Build 0)  -->
<svg version="1.1" id="Layer_1" xmlns="http://www.w3.org/2000/svg" xmlns:xlink="http://www.w3.org/1999/xlink" x="0px" y="0px"
	 viewBox="0 0 1920 1080" style="enable-background:new 0 0 1920 1080;" xml:space="preserve">
<style type="text/css">
	.st0{fill:#FFFFFF;}
	.st1{opacity:0.18;}
	.st2{fill:#232323;}
	.st3{opacity:0.18;fill:none;stroke:#232323;enable-background:new    ;}
	.st4{fill:none;stroke:#232323;}
	.st5{fill:none;stroke:#000000;stroke-miterlimit:10;}
</style>
<g id="Group_2143" transform="translate(-16053 -4391)">
	<rect id="Rectangle_1628" x="16053" y="4391" class="st0" width="1920" height="1080"/>
	<g id="Polygon_3" transform="translate(17500.6 4815.237) rotate(30)" class="st1">
		<path class="st0" d="M43,42.5L7,42.5c-1.3,0-2.4-0.7-3-1.8s-0.6-2.4,0-3.5l18-31c0.6-1.1,1.8-1.7,3-1.7c1.3,0,2.4,0.7,3,1.7l18,31
			c0.6,1.1,0.6,2.4,0,3.5C45.4,41.8,44.3,42.5,43,42.5z"/>
		<path class="st2" d="M25,5c-1.1,0-2.1,0.6-2.6,1.5l-18,31c-0.5,0.9-0.5,2.1,0,3C4.9,41.4,5.9,42,7,42L43,42c1.1,0,2.1-0.6,2.6-1.5
			c0.5-0.9,0.5-2.1,0-3l-18-31C27.1,5.5,26.1,5,25,5 M25,4c1.3,0,2.7,0.7,3.5,2l18,31c1.6,2.7-0.4,6-3.5,6L7,43c-3.1,0-5-3.3-3.5-6
			l18-31C22.3,4.6,23.7,4,25,4z"/>
	</g>
	<g id="Polygon_5" transform="translate(16985.6 4815.237) rotate(30)" class="st1">
		<path class="st0" d="M43,42.5L7,42.5c-1.3,0-2.4-0.7-3-1.8s-0.6-2.4,0-3.5l18-31c0.6-1.1,1.8-1.7,3-1.7c1.3,0,2.4,0.7,3,1.7l18,31
			c0.6,1.1,0.6,2.4,0,3.5C45.4,41.8,44.3,42.5,43,42.5z"/>
		<path class="st2" d="M25,5c-1.1,0-2.1,0.6-2.6,1.5l-18,31c-0.5,0.9-0.5,2.1,0,3C4.9,41.4,5.9,42,7,42L43,42c1.1,0,2.1-0.6,2.6-1.5
			c0.5-0.9,0.5-2.1,0-3l-18-31C27.1,5.5,26.1,5,25,5 M25,4c1.3,0,2.7,0.7,3.5,2l18,31c1.6,2.7-0.4,6-3.5,6L7,43c-3.1,0-5-3.3-3.5-6
			l18-31C22.3,4.6,23.7,4,25,4z"/>
	</g>
	<g id="Polygon_4" transform="translate(16570.619 5070.831) rotate(-45)" class="st1">
		<path class="st0" d="M43,42.5H7c-1.3,0-2.4-0.7-3-1.8s-0.6-2.4,0-3.5l18-31c0.6-1.1,1.8-1.7,3-1.7c1.3,0,2.4,0.7,3,1.7l18,31
			c0.6,1.1,0.6,2.4,0,3.5C45.4,41.8,44.3,42.5,43,42.5z"/>
		<path class="st2" d="M25,5c-1.1,0-2.1,0.6-2.6,1.5l-18,31c-0.5,0.9-0.5,2.1,0,3C4.9,41.4,5.9,42,7,42H43c1.1,0,2.1-0.6,2.6-1.5
			c0.5-0.9,0.5-2.1,0-3l-18-31C27.1,5.5,26.1,5,25,5 M25,4c1.3,0,2.7,0.7,3.5,2l18,31c1.6,2.7-0.4,6-3.5,6H7c-3.1,0-5-3.3-3.5-6
			l18-31C22.3,4.6,23.7,4,25,4z"/>
	</g>
	<line id="Line_230" class="st3" x1="17693" y1="4646.4" x2="17722" y2="4675.4"/>
	<line id="Line_231" class="st3" x1="16495" y1="4604.4" x2="16524" y2="4633.4"/>
	<path id="Path_5301" class="st3" d="M17711,4477.4h29v29"/>
	<path id="Path_5302" class="st3" d="M16444.1,5311.3l-19-21.9l21.9-19"/>
	<path id="Path_5304" class="st3" d="M17620.6,5091.9l24.9-14.9l14.9,24.9"/>
	<path id="Path_5303" class="st3" d="M16176.3,5418.1l-28,7.5l-7.5-28"/>
	<line id="Line_232" class="st3" x1="16259" y1="4917.4" x2="16299" y2="4877.4"/>
	<line id="Line_233" class="st3" x1="16734" y1="4835.4" x2="16774" y2="4795.4"/>
	<line id="Line_234" class="st3" x1="17029" y1="4532.4" x2="17088.5" y2="4555.5"/>
	<g id="Ellipse_610" transform="translate(16509.5 4768.856)" class="st1">
		<circle class="st0" cx="15" cy="15" r="15"/>
		<circle class="st4" cx="15" cy="15" r="14.5"/>
	</g>
	<g id="Ellipse_611" transform="translate(16153.5 5169.856)" class="st1">
		<circle class="st0" cx="23" cy="23" r="23"/>
		<circle class="st4" cx="23" cy="23" r="22.5"/>
	</g>
	<g id="Ellipse_612" transform="translate(17693.5 5215.856)" class="st1">
		<circle class="st0" cx="23" cy="23" r="23"/>
		<circle class="st4" cx="23" cy="23" r="22.5"/>
	</g>
	<g id="Ellipse_613" transform="translate(17739.5 4940.856)" class="st1">
		<circle class="st0" cx="14" cy="14" r="14"/>
		<circle class="st4" cx="14" cy="14" r="13.5"/>
	</g>
	<g id="Ellipse_614" transform="translate(17322.5 4527.856)" class="st1">
		<circle class="st0" cx="14" cy="14" r="14"/>
		<circle class="st4" cx="14" cy="14" r="13.5"/>
	</g>
	<g id="Ellipse_615" transform="translate(16885.5 5116.856)" class="st1">
		<circle class="st0" cx="14" cy="14" r="14"/>
		<circle class="st4" cx="14" cy="14" r="13.5"/>
	</g>
	<g id="Rectangle_1629" transform="translate(17413.5 5084.856)" class="st1">
		<rect x="0" y="0" class="st0" width="32" height="32"/>
		<rect x="0.5" y="0.5" class="st4" width="31" height="31"/>
	</g>
	<g id="Rectangle_1630" transform="translate(17233.645 5335) rotate(30)" class="st1">
		<rect x="0" y="0" transform="matrix(2.729302e-06 1 -1 2.729302e-06 32 -5.022214e-05)" class="st0" width="32" height="32"/>
		<rect x="0.5" y="0.5" transform="matrix(2.729302e-06 1 -1 2.729302e-06 32 -5.022214e-05)" class="st4" width="31" height="31"/>
	</g>
	<g id="Rectangle_1632" transform="translate(17166.645 5095) rotate(30)" class="st1">
		<rect x="0" y="0" transform="matrix(2.729302e-06 1 -1 2.729302e-06 32 -5.022214e-05)" class="st0" width="32" height="32"/>
		<rect x="0.5" y="0.5" transform="matrix(2.729302e-06 1 -1 2.729302e-06 32 -5.022214e-05)" class="st4" width="31" height="31"/>
	</g>
	<g id="Rectangle_1631" transform="translate(16769.645 4484) rotate(30)" class="st1">
		<rect x="0" y="0" transform="matrix(2.729302e-06 1 -1 2.729302e-06 32 -5.022214e-05)" class="st0" width="32" height="32"/>
		<rect x="0.5" y="0.5" transform="matrix(2.729302e-06 1 -1 2.729302e-06 32 -5.022214e-05)" class="st4" width="31" height="31"/>
	</g>
	<g id="Asset_4" transform="translate(16636.254 5304.889)" class="st1">
		<g transform="translate(0.519 0.502)">
			<path id="Path_5300" class="st5" d="M40.5,32.4c-9.6,9.6-25.1,9.6-34.7,0c0,0,0,0,0,0c-7.7-7.7-7.7-20.1,0-27.8
				c6.1-6.1,16.1-6.1,22.2,0c4.9,4.9,4.9,12.9,0,17.8c-3.9,3.9-10.3,3.9-14.2,0c-3.1-3.1-3.1-8.2,0-11.4c0,0,0,0,0,0
				c2.5-2.5,6.6-2.5,9.1,0c2,2,2,5.3,0,7.3c0,0,0,0,0,0c-1.6,1.6-4.2,1.6-5.8,0c0,0,0,0,0,0c-1.3-1.3-1.3-3.4,0-4.7c0,0,0,0,0,0"/>
		</g>
	</g>
	<g id="Asset_4-2" transform="matrix(-0.966, -0.259, 0.259, -0.966, 17578.807, 5370.145)" class="st1">
		<g id="Layer_1-2" transform="translate(0.519 0.502)">
			<path id="Path_5300-2" class="st5" d="M40.5,32.4c-9.6,9.6-25.1,9.6-34.7,0c0,0,0,0,0,0c-7.7-7.7-7.7-20.1,0-27.8
				c6.1-6.1,16.1-6.1,22.2,0c4.9,4.9,4.9,12.9,0,17.8c-3.9,3.9-10.3,3.9-14.2,0c-3.1-3.1-3.1-8.2,0-11.4c0,0,0,0,0,0
				c2.5-2.5,6.6-2.5,9.1,0c2,2,2,5.3,0,7.3c0,0,0,0,0,0c-1.6,1.6-4.2,1.6-5.8,0c0,0,0,0,0,0c-1.3-1.3-1.3-3.4,0-4.7c0,0,0,0,0,0"/>
		</g>
	</g>
	<g id="Asset_4-3" transform="matrix(-0.966, -0.259, 0.259, -0.966, 17358.643, 4769.37)" class="st1">
		<g id="Layer_1-3" transform="translate(0.519 0.502)">
			<path id="Path_5300-3" class="st5" d="M62.5,50C47.7,64.8,23.7,64.8,8.9,50C-3,38.1-3,18.9,8.9,7.1c9.5-9.5,24.8-9.5,34.3,0
				c7.6,7.6,7.6,19.9,0,27.4c-6.1,6.1-15.9,6.1-21.9,0c-4.8-4.8-4.8-12.7,0-17.6c0,0,0,0,0,0c3.9-3.9,10.2-3.9,14,0c0,0,0,0,0,0
				c3.1,3.1,3.1,8.1,0,11.2c0,0,0,0,0,0c-2.5,2.5-6.5,2.5-9,0c0,0,0,0,0,0c-2-2-2-5.2,0-7.2c0,0,0,0,0,0"/>
		</g>
	</g>
	<g id="Asset_4-4" transform="translate(16198.976 4650.924) rotate(-90)" class="st1">
		<g id="Layer_1-4" transform="translate(0.519 0.502)">
			<path id="Path_5300-4" class="st5" d="M62.5,50C47.7,64.8,23.7,64.8,8.9,50C-3,38.1-3,18.9,8.9,7.1c9.5-9.5,24.8-9.5,34.3,0
				c7.6,7.6,7.6,19.9,0,27.4c-6.1,6.1-15.9,6.1-21.9,0c-4.8-4.8-4.8-12.7,0-17.6c0,0,0,0,0,0c3.9-3.9,10.2-3.9,14,0c0,0,0,0,0,0
				c3.1,3.1,3.1,8.1,0,11.2c0,0,0,0,0,0c-2.5,2.5-6.5,2.5-9,0c0,0,0,0,0,0c-2-2-2-5.2,0-7.2c0,0,0,0,0,0"/>
		</g>
	</g>
</g>
</svg>
