<svg xmlns="http://www.w3.org/2000/svg" viewBox="0 0 132.11 158.06"><defs><style>.cls-1{fill:#505050;}</style></defs><title>ui</title><g id="Layer_2" data-name="Layer 2"><g id="Layer_1-2" data-name="Layer 1"><path d="M113.1,106.3a5.46,5.46,0,0,0-1.32-1.92L107,99.58V58.76l25.12-25.12-20.5-20.49L107,17.77V12.2C107,5,102,0,94.77,0H37.48C30.06,0,25.11,5,25.11,12.43V21c-4.24-.79-8.55.79-12.36,4.24-6.83,6.2-6.4,15.11-.09,21.32L25.11,58.91V99.65L0,124.76l20.49,20.49,4.62-4.62v5c0,7.42,5,12.38,12.41,12.38H94.44c7.67,0,12.55-4.9,12.55-12.6v-14.2c5.72,2,11.42,4.2,17.34,6.34a11.48,11.48,0,0,0-.33-1.22C120.38,126.34,116.77,116.31,113.1,106.3Zm-5.51-2-.6.14a7.13,7.13,0,0,1-1.59.2l-.41,0a2.9,2.9,0,0,1-.41-.06,2.62,2.62,0,0,1-.38-.09,2.41,2.41,0,0,1-.42-.16,2.49,2.49,0,0,1-.33-.16,3.84,3.84,0,0,1-.5-.32,2.86,2.86,0,0,1-.35-.28,4.49,4.49,0,0,1-.4-.37L96,96.87l-2.41-2.42Q88,88.87,82.44,83.3l.71-.71.68-.67.71-.71L107,103.66ZM85.14,119.08a49.11,49.11,0,0,0,5.17,4.59l-.37,0H42.06L66,99.75Q75.57,109.4,85.14,119.08ZM68,97.71l1.38-1.38.71-.71Q80,105.52,90,115.4c1.7,1.68,1.67,3.23,1.11,5.36Zm4-4,.71-.71,7-7,.71-.7L93.56,98.33,96,100.74l4.87,4.86a3.09,3.09,0,0,1,.84,2.87c-.29,3.87-2.2,5.8-5.71,6.32q-.37.06-.78.09a4.14,4.14,0,0,1-1.63-.07,2.3,2.3,0,0,1-1-.61Q82.35,103.92,72.08,93.66Zm14.51-14.5,7-7L96,69.78l8.23-8.23V96.79L96,88.55c-.8-.81-1.61-1.61-2.41-2.41ZM27.9,12.3c0-5.85,3.64-9.5,9.46-9.5H94.84c5.67,0,9.36,3.71,9.36,9.41v8.35l-8.33,8.33a3.62,3.62,0,0,0-3.51-2.75H39.74a3.62,3.62,0,0,0-3.49,2.7l-4-3.94A14.42,14.42,0,0,0,29,22.4q-.52-.28-1.05-.51Zm10.67,56-2.44-2.44L29,58.7l2.09-2.09,1.62,1.63,3.4,3.4c.81.81,1.62,1.63,2.44,2.44l11,11.06-2.08,2.08Zm7,11-7,7V72.3Q42.05,75.75,45.53,79.23Zm-9.4-9.37V88.63L27.9,96.86V61.67Q32,65.75,36.13,69.86Zm2.44-9.73-2.44-2.44-2-2c-.29-.29-.56-.62-1-1.08l8.33-8.33,1.37,1.37L60,64.78l-.71.71-7,7-.71.7ZM43.46,44.3l2.09-2.08,18.5,18.5-.71.7-.67.67L62,62.8Zm-4.78-13a3.61,3.61,0,0,1,3.5-2.73H89.94a3.61,3.61,0,0,1,3.52,2.76L66.1,58.66ZM10.6,34A13.34,13.34,0,0,1,20.2,24a9.15,9.15,0,0,1,4.91-.22,9.33,9.33,0,0,1,2.79,1.16,21.08,21.08,0,0,1,5.15,4.88L27.9,34.92l-2.79,2.79-8.53,8.52C12.66,43,9.33,39.5,10.6,34Zm8.09,14.42L25.11,42l2.79-2.79,7.33-7.33,8.19,8.19-7.29,7.29L27.9,55.61l-1,1-1.77-1.77Zm1.94,80.62-2,2,6.05,6.05-4.18,4.18L4,124.78l21.12-21.12,2.79-2.79,8.23-8.23L47.54,81.23l1.3-1.3.7-.71.71-.71.67-.66,1.41-1.41.57-.57.7-.7,7.68-7.68.7-.71.71-.71.57-.56.7-.71.71-.7.67-.68.71-.7.71-.71,1.34-1.35L96,32.79l8.23-8.23L107,21.77l4.67-4.67,16.47,16.47-8.3,8.3-6-6-2,2,6,6-4.25,4.25-6-6-.61.61L105.64,44,107,45.38,111.66,50,107.4,54.3l-6-6-1.95,1.95L104.2,55l1.25,1.25L104.2,57.5l-3,3L96,55.3l-.8-.8-1.61,1.61v.68L96,59.2l3.26,3.27L95,66.72l-6-6-2,1.95,6,6-4.26,4.27-6-6-2,1.95,6,6-2.25,2.24-2,2-6-6,0,0-.71.71-.66.67-.55.55,6,6-.17.17L77.75,84l-1.41,1.41-6-6-2,2,6,6-3.61,3.61-.65.65-6-6-2,2,6,6-.07.07-.71.71-.67.67-2.81,2.81-6-6-2,2,6,6L57.7,104l-6-6-1.95,2,6,6-4.26,4.26-6-6-1.95,2,6,6-4.26,4.26-6-6-2,2,1.3,1.3,4.74,4.75-4.21,4.21-3-3-3.08-3.07-2,2,5.49,5.48.56.56-4.22,4.22-5-5-1.06-1.06-1.73,1.73v.54l2.79,2.8,3,3-3,3-1.22,1.22Zm83.57,16.43c0,6.22-3.53,9.77-9.73,9.77q-28.56,0-57.12,0c-5.81,0-9.45-3.66-9.45-9.5v-7.92l11.78-11.78H92.36a3.66,3.66,0,0,0,1.16-.19,33.8,33.8,0,0,0,7.79,3.51c1,.3,1.93.6,2.89.92Zm.64-18.09a2.25,2.25,0,0,1-.64.08c-1.67,0-3.68-1.33-5.5-2-.29-.09-.57-.2-.86-.31a18.19,18.19,0,0,1-2.35-1c-2-1-2-2.14-1.24-5.53a1.82,1.82,0,0,1,1.16-1.07l.56-.16q2.63-.78,5.28-1.33a2,2,0,0,0,1.74-1.77c.34-1.68.82-3.33,1.21-5,.06-.23.11-.46.16-.69a1.49,1.49,0,0,1,1.58-1.36l1-.1c3.58-.32,3.7,0,5.13,4,.68,1.89,1.32,3.8,2,5.67a1.77,1.77,0,0,1-.48,2.25c-1.35,1.22-2.6,2.56-3.9,3.85l-.12-.13c-.92.93-1.77,2.14-2.68,3.08A4.71,4.71,0,0,1,104.84,127.4Zm3.22,1.45,7.62-7.62c1.4,3.93,2.73,7.65,4.24,11.87Z"/><path d="M93.56,72.19v14c.8.8,1.61,1.6,2.41,2.41V69.78Z"/><path d="M72.83,143.49A5.79,5.79,0,1,1,67,137.62,5.87,5.87,0,0,1,72.83,143.49Z"/><path class="cls-1" d="M24.84,124.85l.27.27v-.54Zm0,0,.27.27v-.54Zm68.38-68.4.34.34v-.68Zm-68.38,68.4.27.27v-.54Zm68.38-68.4.34.34v-.68Zm-68.38,68.4.27.27v-.54Z"/><path class="cls-1" d="M119.41,29.42a3.8,3.8,0,0,1-3.63,3.7h0A3.57,3.57,0,0,1,113.23,32a3.42,3.42,0,0,1-.1-4.94,3.64,3.64,0,0,1,2.54-1.21,3.58,3.58,0,0,1,2.56,1A3.63,3.63,0,0,1,119.41,29.42Z"/><path class="cls-1" d="M78.31,12.42a2,2,0,0,1-2,2h-26a2,2,0,0,1-2-2,2,2,0,0,1,2-2h26A2,2,0,0,1,78.31,12.42Z"/></g></g></svg>