<svg xmlns="http://www.w3.org/2000/svg" viewBox="0 0 178 159.89"><defs><style>.cls-1{fill:#fff;}</style></defs><title>ux</title><g id="Layer_2" data-name="Layer 2"><g id="Layer_1-2" data-name="Layer 1"><path d="M137,140.5v10.16a4.24,4.24,0,0,1-4.23,4.23H70.23A4.24,4.24,0,0,1,66,150.66V77.5H61v73.16a9.24,9.24,0,0,0,9.23,9.23h62.54a9.24,9.24,0,0,0,9.23-9.23V140.5ZM132.77,16.11H70.23A9.24,9.24,0,0,0,61,25.34V35.5h5V25.34a4.24,4.24,0,0,1,4.23-4.23h62.54A4.24,4.24,0,0,1,137,25.34V98.5h5V25.34A9.24,9.24,0,0,0,132.77,16.11Z"/><rect x="122.5" y="118" width="4" height="4"/><rect x="122.5" y="110" width="10" height="4"/><rect x="135.5" y="110" width="10" height="4"/><path d="M113,101.5v36h65v-36ZM173.5,133h-56V106h56Z"/><rect class="cls-1" x="122.5" y="118" width="4" height="4"/><rect class="cls-1" x="122.5" y="110" width="10" height="4"/><path d="M40.5,55v4h13V55Zm16,0v4h4V55Zm0,0v4h4V55Zm-16,0v4h13V55Zm0,0v4h13V55Zm16,0v4h4V55Zm-16,0v4h13V55Zm16,0v4h4V55Zm0,0v4h4V55Zm-16,0v4h13V55Zm0,0v4h13V55Zm16,0v4h4V55Zm0,0v4h4V55Zm-16,0v4h13V55Z"/><path d="M31,38.5v36H96v-36ZM91.5,70h-56V43h56Z"/><rect class="cls-1" x="40.5" y="55" width="13" height="4"/><rect class="cls-1" x="56.5" y="55" width="4" height="4"/><rect x="40.5" y="48" width="22" height="4"/><path d="M73.5,86v26h26V86Zm21,21h-16V91h16Z"/><path d="M117.5,42a13,13,0,1,0,13,13A13,13,0,0,0,117.5,42Zm0,21a8,8,0,1,1,8-8A8,8,0,0,1,117.5,63Z"/><path d="M73.5,121v26h26V121Zm21,21h-16V126h16Z"/><rect x="40.5" y="55" width="13" height="4"/><rect x="56.5" y="55" width="4" height="4"/><rect x="122.5" y="118" width="4" height="4"/><rect x="40.5" y="62" width="46" height="4"/><rect x="122.5" y="125" width="46" height="4"/><rect x="122.5" y="110" width="10" height="4"/><rect x="129.5" y="118" width="22" height="4"/><path d="M157.5,55.5h-5V12a7,7,0,0,0-7-7H102V0h43.53a12,12,0,0,1,12,12Z"/><rect x="152.5" y="60" width="5" height="5"/><rect x="91.5" width="5" height="5"/><rect x="81.5" width="5" height="5"/><rect y="90" width="40" height="5"/><rect x="11.5" y="101" width="40" height="5"/><rect x="11.5" y="112" width="40" height="5"/></g></g></svg>