<svg xmlns="http://www.w3.org/2000/svg" width="159.173" height="100.365" viewBox="0 0 159.173 100.365">
  <path id="Path_5290" data-name="Path 5290" d="M348.7,314.065c1.257,1.183,2.511,2.376,3.8,3.518.644.573,1.283,1.155,1.933,1.721l1.961,1.685c.652.566,1.314,1.116,1.98,1.662s1.328,1.1,2,1.64,1.343,1.077,2.02,1.608l1.014.8,1.025.783,2.052,1.566c.34.265.69.513,1.037.767l1.042.759c.7.5,1.387,1.017,2.088,1.514l2.109,1.481c1.405.991,2.842,1.927,4.268,2.885s2.881,1.864,4.328,2.787a218.351,218.351,0,0,0,36.592,18.435c6.334,2.53,12.8,4.682,19.321,6.587l2.449.706,1.226.348,1.233.318c1.645.42,3.287.854,4.934,1.263l4.961,1.132c.825.2,1.659.349,2.49.517s1.663.33,2.5.483a126.547,126.547,0,0,0,20.174,2.07q1.267.028,2.535.034c.846-.013,1.692-.023,2.537-.047s1.69-.041,2.535-.087,1.691-.1,2.535-.165a75.791,75.791,0,0,0,10.1-1.381l0-.145c-.827-.248-1.652-.462-2.476-.672l-2.469-.605c-1.643-.406-3.284-.749-4.918-1.131q-1.226-.276-2.451-.532c-.408-.081-.816-.176-1.223-.267s-.815-.177-1.222-.265c-.814-.178-1.628-.341-2.442-.508l-2.436-.52-19.392-4c-1.608-.354-3.224-.66-4.832-1.012l-4.818-1.083-4.8-1.181-1.2-.3-1.193-.325-2.387-.645-2.388-.645-2.373-.7-2.375-.7-1.188-.349c-.4-.116-.787-.251-1.18-.376L425,351.987c-.2-.064-.394-.124-.59-.191l-.585-.2-1.172-.407-2.345-.812a288.681,288.681,0,0,1-36.661-15.766l-2.228-1.164-1.118-.576c-.372-.193-.74-.4-1.11-.594-1.475-.8-2.964-1.578-4.424-2.414l-2.208-1.223c-.734-.411-1.46-.838-2.192-1.257s-1.463-.837-2.189-1.266L366,324.826l-1.091-.645-1.081-.662c-.72-.444-1.446-.877-2.17-1.316s-1.436-.9-2.156-1.345-1.443-.89-2.155-1.352c-2.868-1.816-5.71-3.687-8.565-5.558Z" transform="matrix(0.951, -0.309, 0.309, 0.951, -428.649, -144.852)" fill="#fff"/>
</svg>
