<svg xmlns="http://www.w3.org/2000/svg" viewBox="0 0 338.08 338"><defs><style>
    .cls-1{opacity:0;}
    .cls-2{fill:#3b5999;}

</style></defs><title>facebook</title><g id="Layer_2" data-name="Layer 2"><g id="Layer_2-2" data-name="Layer 2"><rect class="cls-1" x="0.04" width="338" height="338"/><path class="cls-2" d="M169.11.07C81.55-2.24,0,71,0,168.42,0,261.91,75.52,338.25,168.48,338c92.19-.25,169.82-72.31,169.6-169.32C337.84,63.39,250.3-2.4,169.11.07Zm46.67,168.35H185.51V277.15h-43.8V169.25H118.55c0-11.81.12-22.26-.06-32.7-.07-4.07,2-4.91,5.42-4.82,5.55.13,11.11,0,17.67,0,0-9.2,0-17.88,0-26.55,0-28.93,13.77-43.2,42.6-43.89,11.18-.26,22.37,0,34.2,0v38c-7.79,0-15.49.13-23.18,0-6.82-.15-9.8,3.22-9.79,9.77,0,7.26,0,14.51,0,22.78H219C217.91,144.37,216.89,155.89,215.78,168.42Z"/></g></g></svg>