<svg xmlns="http://www.w3.org/2000/svg" viewBox="0 0 338 338"><defs><style>.cls-1{opacity:0;}</style></defs><title>github</title><g id="Layer_2" data-name="Layer 2"><g id="Layer_2-2" data-name="Layer 2"><rect class="cls-1" width="338" height="338"/><path d="M338,158.65v29c-2.15,10.51-3.51,21.27-6.58,31.51C315.11,273.76,280.1,311.27,227,331.8c-11.84,4.59-16,1.58-16-10.85,0-10.34.11-20.66.13-31,.07-23.2.06-23.2-9.79-41.93,7-1.49,14.13-2.67,21-4.56,32.19-8.8,49.67-29.6,53.47-62.61,2.51-21.73.27-42.11-14.31-59.74-1.16-1.4-1-4.49-.5-6.56,2.92-12.12,2-23.94-1.6-35.78-1.21-4-3.37-5.1-7.18-4.77-13.14,1.12-24.35,7.16-35.16,14-4,2.52-7.46,3.28-12.19,2.16-24.36-5.85-48.77-5.36-73.22-.08-3,.65-6.66-.34-9.6-1.58C111.82,84.14,102,78.58,91.5,75,81.4,71.58,79.07,73,77.59,83.24a138.24,138.24,0,0,0-.58,30c.33,4.25.45,7.29-2.4,10.63C51.45,151,59.22,212.32,89.77,232.07c13.07,8.45,27.35,12.75,42.47,15,1.44.22,2.87.5,3.51.62-2.75,7.18-5.25,14.06-8.09,20.81a7.31,7.31,0,0,1-3.68,3.27c-16.93,7.34-33.8,1.93-44.6-13.28a63.18,63.18,0,0,0-14.95-15.34c-4-2.76-9.84-2.95-14.93-3.81-1.32-.22-3.76,1.11-4.19,2.27s.81,3.26,1.92,4.36c1.83,1.85,4.54,2.89,6.19,4.85,4.88,5.82,11.29,11.25,13.81,18.06,8.53,23,30,29.43,51.68,26.36,2.36-.34,4.74-.66,7.92-1.09,0,11.18.37,21.93-.13,32.64-.31,6.23-6.14,8.43-13.91,5.7a163.46,163.46,0,0,1-52.36-29.92c-33.84-29-53.82-65.51-59.24-109.86A45.76,45.76,0,0,0,0,187.69v-29a46,46,0,0,0,1.2-5.07A168.49,168.49,0,0,1,129.31,9c8.29-2,16.77-3.24,25.17-4.82h29a33.19,33.19,0,0,0,4.41,1.13c68.9,8,125.1,55.76,143.67,122.45C334.41,137.86,335.9,148.33,338,158.65Z"/></g></g></svg>