<svg xmlns="http://www.w3.org/2000/svg" viewBox="0 0 338 338"><defs><style>
    .cls-1{opacity:0;}
    .cls-2{fill:#0077B5;}

</style></defs><title>linkedin</title><g id="Layer_2" data-name="Layer 2">
    <g id="Layer_2-2" data-name="Layer 2"><rect class="cls-1" width="338" height="338"/>
        <path class="cls-2" id="LinkedIn" d="M338,205.53v125H265.56V213.9c0-29.29-10.48-49.28-36.71-49.28-20,0-31.93,13.47-37.17,26.5-1.91,4.66-2.4,11.14-2.4,17.67v121.7H116.81s1-197.47,0-217.93h72.46v30.89c-.14.23-.33.48-.47.71h.47v-.71c9.63-14.83,26.82-36,65.31-36C302.26,107.44,338,138.59,338,205.53ZM41,7.51C16.22,7.51,0,23.77,0,45.16,0,66.07,15.75,82.83,40.05,82.83h.48c25.27,0,41-16.75,41-37.67C81,23.77,65.8,7.51,41,7.51ZM4.3,330.49H76.75V112.56H4.3Z"/></g></g></svg>