<svg xmlns="http://www.w3.org/2000/svg" viewBox="0 0 338 338"><defs><style>

    .cls-1{opacity:0;}
    .cls-2{fill : #55acee;}

</style></defs><title>twitter</title><g id="Layer_2" data-name="Layer 2">
    <g id="Layer_2-2" data-name="Layer 2"><rect class="cls-1" width="338" height="338"/>
        <path class="cls-2" d="M338,64.88C332.52,71.3,327.31,78,321.47,84.09c-4.72,4.93-10.15,9.19-15.41,13.57a5.69,5.69,0,0,0-2.41,5c.56,59.57-20.33,110.45-62.93,152-27.08,26.43-59.86,42.35-97.08,49-36.45,6.51-72.2,3.85-107.06-9A172.09,172.09,0,0,1,0,276.19c37.3,3.13,71-6.1,101.4-29.05-31.83-2.74-53.14-18.64-64.93-48.53C47.12,200,57,200.14,66.55,197.49c-5.6-2.26-11.56-4.05-16.9-7a75.21,75.21,0,0,1-15.29-10.93,70.73,70.73,0,0,1-19.49-32.12c-1.74-5.95-2.14-12.3-2.68-18.79,9.88,4.37,19.65,7.6,31.28,7.92-17.64-12.88-27.76-29.31-30.15-50a67.31,67.31,0,0,1,8.94-42.62c37.67,44.26,85.23,68.6,143.38,72.67-.44-4.13-1-7.91-1.21-11.71-1.14-28.14,10.47-49.66,34.31-64.38,25.44-15.71,60.76-11.74,82.33,9,2.56,2.46,4.72,3.62,8.32,2.33,6.54-2.35,13.38-3.85,19.85-6.34s12.62-5.78,18.85-8.67c-.22,8.38-11.33,23.09-27.8,37.45,4.09-.76,8.22-1.36,12.27-2.29,4.29-1,8.56-2.18,12.76-3.51s8-2.88,12-4.34Z"/></g></g></svg>