<svg xmlns="http://www.w3.org/2000/svg" viewBox="0 0 200.5 165.57"><title>web</title><g id="Layer_2" data-name="Layer 2"><g id="Layer_1-2" data-name="Layer 1"><path d="M194.14,0H6.36A6.36,6.36,0,0,0,0,6.36V137.22a6.36,6.36,0,0,0,6.36,6.36H194.14a6.36,6.36,0,0,0,6.36-6.36V6.36A6.36,6.36,0,0,0,194.14,0ZM195,133.6a3.91,3.91,0,0,1-3.9,3.9H8.9A3.91,3.91,0,0,1,5,133.6V9.4A3.91,3.91,0,0,1,8.9,5.5H191.1A3.91,3.91,0,0,1,195,9.4Z"/><path d="M78.41,145.52h39.79a2.74,2.74,0,0,1,2.74,2.74v11.49a0,0,0,0,1,0,0H75.67a0,0,0,0,1,0,0V148.26A2.74,2.74,0,0,1,78.41,145.52Z"/><rect x="60.8" y="161.69" width="76.32" height="3.88" rx="1.5"/><path d="M169.87,85.43l-.59-.21a11.26,11.26,0,0,0-7.1.21c-.38.14-.76.29-1.12.46a12.51,12.51,0,0,0-4.1,3,11.44,11.44,0,0,0-1.45,2s0,0,0,0a13.38,13.38,0,0,0-1.49,3.5,1.29,1.29,0,0,1-.75.81,46.86,46.86,0,0,0-9.92,8,81,81,0,0,0-12.92,15.79,5.2,5.2,0,0,0-1,2.77,8.73,8.73,0,0,0,3.68-1.74,92.56,92.56,0,0,0,22.52-22.63c.25-.36.41-.77.91-.91,3.5-.94,5.52-3.52,7.2-6.49a10,10,0,0,1,1.89-2.47A6.43,6.43,0,0,1,171,86,10.72,10.72,0,0,0,169.87,85.43Zm-8.54,6.95A10,10,0,0,1,155.6,96c-.79.2-.94-.05-.94-.77,0-2.62,1.78-4.06,5.21-4.08.23,0,.62,0,1,0C161.76,91.32,161.88,91.65,161.33,92.38Z"/><path d="M11,12.5V73H96V12.5ZM91,68H16V17.5H91Z"/><path d="M108.08,73.5v57H188v-57Zm74.92,52H113.08v-47H183Z"/><path d="M170,104.5a9,9,0,1,0,9,9A9,9,0,0,0,170,104.5Zm0,16a7,7,0,1,1,7-7A7,7,0,0,1,170,120.5Z"/><rect x="118" y="82.5" width="21" height="2"/><rect x="118" y="87.5" width="20" height="2"/><rect x="118" y="92.5" width="14" height="2"/><rect x="21" y="21.5" width="21" height="2"/><rect x="21" y="26.5" width="20" height="2"/><rect x="21" y="31.5" width="14" height="2"/><polygon points="61 45.17 48.96 57.21 47.54 55.79 58.17 45.17 48.21 35.21 49.62 33.79 61 45.17"/><rect x="59.58" y="57.5" width="14.67" height="2"/></g></g></svg>